<svg width="84" height="43" viewBox="0 0 84 43" fill="none" xmlns="http://www.w3.org/2000/svg">
<path d="M76.1132 5.08175L69.1972 0.271385L54.9992 11.3229L40.8067 22.5198L27.5291 12.306C20.3876 6.6269 13.4772 1.96195 12.3239 1.9849C8.47961 2.06137 0.249485 8.19174 0.343735 10.6638C0.399177 12.118 9.73264 19.7909 21.2026 28.0033L41.7695 42.7291L62.4955 26.3087L83.2269 10.0337L76.1132 5.08175ZM32.5617 33.3074C27.6233 29.913 19.3008 23.5298 13.7414 18.9835L3.61692 10.7443L7.53146 7.46477L11.6437 4.32688L26.4701 14.801L41.2964 25.2751L55.3023 14.2274L69.1159 3.18356L74.4442 6.71576L79.5749 10.1064L60.5123 24.7473L41.2576 39.3921L32.5617 33.3074Z" fill="#626262"/>
</svg>
