<svg width="58" height="84" viewBox="0 0 58 84" fill="none" xmlns="http://www.w3.org/2000/svg">
<path d="M6.84722 7.77284L0 14.5029L14.9028 29.1167L30.0069 43.7306L15.5069 56.6138C7.45139 63.5362 0.805556 70.2662 0.805556 71.4199C0.805556 75.2657 9.0625 83.7263 12.4861 83.7263C14.5 83.7263 25.375 74.6888 37.0556 63.5362L58 43.5383L35.8472 22.1944L13.8958 0.850502L6.84722 7.77284ZM44.7083 52.3835C39.875 57.1907 30.8125 65.2667 24.3681 70.6508L12.6875 80.4574L8.25694 76.4194L4.02778 72.1891L18.9306 57.7675L33.8333 43.346L18.9306 28.9244L4.02778 14.6952L9.0625 9.50343L13.8958 4.50396L33.6319 24.1173L53.3681 43.9229L44.7083 52.3835Z" fill="#626262"/>
</svg>
