<svg width="58" height="84" viewBox="0 0 58 84" fill="none" xmlns="http://www.w3.org/2000/svg">
<path d="M21.0174 20.8771L0 41.3801L18.3902 60.7115C44.0557 87.6583 41.8328 86.2914 50.1185 78.676L56.9895 72.2322L42.6411 56.8061L28.2927 41.3801L43.0453 26.9304L58 12.2854L52.1394 6.42737C48.9059 3.30311 45.2683 0.569374 44.0557 0.569374C43.0453 0.569374 32.5366 9.7469 21.0174 20.8771ZM39.0035 26.9304L24.0488 41.3801L27.8885 45.8712C30.1115 48.4097 36.5784 55.244 42.439 61.2973L53.1498 72.0369L48.0976 76.7233L42.8432 81.4097L38.3972 76.5281C35.77 73.9896 26.878 65.0073 18.7944 56.6109L3.83972 41.3801L23.8467 22.0487L44.0557 2.52204L49.108 7.4037L54.1603 12.2854L39.0035 26.9304Z" fill="#626262"/>
</svg>
